<?xml version="1.0" encoding="utf-8"?>
<!-- Generator: Adobe Illustrator 24.0.0, SVG Export Plug-In . SVG Version: 6.00 Build 0)  -->
<svg version="1.1" id="Layer_1" xmlns="http://www.w3.org/2000/svg" xmlns:xlink="http://www.w3.org/1999/xlink" x="0px" y="0px"
	 viewBox="0 0 2988.1 1173.9" style="enable-background:new 0 0 2988.1 1173.9;" xml:space="preserve">
<style type="text/css">
	.st0{fill:#38D200;}
	.st1{fill:#0473EA;}
	.st2{fill:#525355;}
	.st3{fill:none;}
</style>
<title>sc_lock-up_grey_rgb</title>
<g id="Trustmark">
	<path class="st0" d="M572.6,1155.1L81.3,835.2c0,0-61.6-35.4-75.7-101.4c-19.8-92.7,45.5-172.1,45.5-172.1L688.7,977
		c49.2,32.1,62.6,97.6,31,147.1C687.2,1174.9,620.5,1186.1,572.6,1155.1z"/>
	<path class="st1" d="M107.2,493.2c0,0-75.3-45.4-75.3-150.5C32,237.9,107.2,193,107.2,193L375.8,17.2c49.2-32,115.1-18,147.1,31.2
		s18,115.1-31.2,147.1L265.3,342.9L651,594.1c0,0,69.4,39.8,83.1,106.9c19.1,93.7-45.4,170.9-45.4,170.9L107.2,493.2z"/>
	<path class="st0" d="M612.8,238.1c-25.2,0-43.2,8-60.7,19.3L421,342.9l131.1,85.4c17.7,11.4,36.2,19.4,60.7,19.4
		c57.9,0.6,105.2-45.9,105.8-103.7c0.6-57.9-45.9-105.2-103.7-105.8C614.1,238.1,613.5,238.1,612.8,238.1"/>
	<path class="st1" d="M105.8,1172c25.2,0,43.2-8,60.7-19.3l131.1-85.4l-131.1-85.4c-17.7-11.4-36.2-19.4-60.7-19.4
		C47.9,962,0.6,1008.4,0,1066.3c-0.6,57.9,45.9,105.2,103.7,105.8C104.4,1172.1,105.1,1172.1,105.8,1172"/>
	<path class="st2" d="M1158.3,839.5c27.7,0,53.6-7.5,73.8-24.9v39c-22.6,15.5-49.3,22.1-77.6,22.1c-71,0-120.3-49.3-120.3-120.3
		c0-70.5,50.8-119.8,121.2-119.8c27.7,0,53.6,8,74.3,23.5v42.8c-18.3-19.7-43.7-30.1-71.9-30.1c-49.3,0-84.1,34.3-84.1,83.7
		S1108.9,839.5,1158.3,839.5z"/>
	<path class="st2" d="M1312.4,871.5h-38.1V566.3l38.1,23.5v89.4c17.4-26.8,45.1-43.7,80.4-43.7c58.3,0,89.3,42.8,89.3,99.6v136.3
		h-38.5V741.8c0-45.1-19.7-69.1-60.2-69.1c-42.8,0-71,36.7-71,82.7L1312.4,871.5z"/>
	<path class="st2" d="M1718.5,832c-19.3,27.3-48.9,43.7-85.1,43.7c-67.7,0-116.1-50.3-116.1-118.9c0-70,48.4-121.2,116.1-121.2
		c36.2,0,65.8,16.9,85.1,44.7v-40.4h38.5v231.7h-38.5V832z M1556.8,756.3c0,47.9,33.4,83.2,80.4,83.2c47.5,0,81.3-35.2,81.3-83.2
		c0-48.9-33.8-84.6-81.3-84.6C1590.2,671.8,1556.8,707.5,1556.8,756.3L1556.8,756.3z"/>
	<path class="st2" d="M1854.3,871.5h-38.1V639.8h38.1v49.3c18.3-34.3,47.9-53.6,84.6-53.6v43.7c-46.1-6.6-84.6,24.4-84.6,81.8V871.5
		z"/>
	<path class="st2" d="M2329,770.4h-182.8c5.6,41.8,38.5,69.6,84.6,69.6c29.6,0,58.3-8.5,82.7-25.8v36.7
		c-24.9,16.9-53.1,24.9-82.7,24.9c-72.9,0-125-47-125-118c0-69.6,44.2-122.2,114.2-122.2c66.7,0,110.4,49.3,110.4,115.6
		C2330.5,757.6,2330,764.1,2329,770.4z M2146.7,739.4H2290c-3.8-39.5-28.7-68.6-69.6-68.6C2178.2,670.8,2152.8,700.4,2146.7,739.4
		L2146.7,739.4z"/>
	<path class="st2" d="M2410.3,871.5h-38.1V639.8h38.1v49.3c18.3-34.3,47.9-53.6,84.6-53.6v43.7c-46.1-6.6-84.6,24.4-84.6,81.8V871.5
		z"/>
	<path class="st2" d="M2721,770.4h-182.8c5.6,41.8,38.5,69.6,84.6,69.6c29.6,0,58.3-8.5,82.7-25.8v36.7
		c-24.9,16.9-53.1,24.9-82.7,24.9c-72.9,0-125-47-125-118c0-69.6,44.2-122.2,114.2-122.2c66.7,0,110.4,49.3,110.4,115.6
		C2722.4,757.6,2722,764.1,2721,770.4z M2538.7,739.4H2682c-3.8-39.5-28.7-68.6-69.6-68.6C2570.1,670.8,2544.8,700.4,2538.7,739.4
		L2538.7,739.4z"/>
	<path class="st2" d="M2949.5,831.7c-18.8,27.7-48.9,44.7-85.1,44.7c-67.7,0-116.1-50.3-116.1-118.9c0-70,48.4-121.3,116.1-121.3
		c36.2,0,66.3,17.4,85.1,45.6V566.4l38.5,23.5v281.5h-38.5V831.7z M2787.9,757c0,47.9,33.4,83.2,80.4,83.2
		c47.5,0,81.3-35.2,81.3-83.2c0-48.9-33.8-84.6-81.3-84.6C2821.2,672.4,2787.9,708.1,2787.9,757z"/>
	<path class="st2" d="M2005.5,794.5c0,32.4,19.7,45.1,44.6,45.1c19.3,0.2,38.3-5.7,54.1-16.9v37.1c-16,11.8-38.1,16.4-57.3,16.4
		c-49.4,0-79.4-22.1-79.4-84.6V566.3l38.1,23.5V794.5z"/>
	<path class="st2" d="M2067,636.8c-13.6-8.8-31.8-5-40.7,8.7c-8.8,13.6-5,31.8,8.7,40.7l0.8,0.5c9.7,6.2,22,6.2,31.7,0l37.9-24.3
		L2067,636.8z"/>
	<path class="st2" d="M1113.6,505.4c27.2,0,47-11.8,47-32.9c0-12.7-6.6-22.6-24-29.6l-55-22.1c-28.2-12.2-43.7-28.2-43.7-58.3
		c0-40.4,32.4-65.8,79.4-65.8c27.2,0,52.6,7.5,70.5,21.2v40c-21.1-18.8-47-29.6-70-29.6c-24.4,0-41.8,11.3-41.8,30.1
		c0,14.1,6.6,22.6,24.9,29.6l55,22.1c29.6,12.7,43.2,30.5,43.2,55.5c0,44.2-35.7,71.4-86,71.4c-30.6,0-58.3-8.5-78.5-23.5V472
		C1059.1,495.1,1086.4,505.4,1113.6,505.4z"/>
	<path class="st2" d="M1271.6,455.1c0,32.4,19.7,45.1,44.7,45.1c19.3,0.2,38.2-5.7,54-16.9v37.1c-16,11.8-38.1,16.5-57.3,16.5
		c-49.3,0-79.4-22.1-79.4-84.6v-202l38.1-23.6L1271.6,455.1z"/>
	<path class="st2" d="M1583.2,493.2c-19.3,27.3-48.9,43.7-85.1,43.7c-67.7,0-116.1-50.3-116.1-118.9c0-70,48.4-121.3,116.1-121.3
		c36.2,0,65.8,16.9,85.1,44.7V301h38.5v231.7h-38.5V493.2z M1421.5,417.5c0,47.9,33.4,83.2,80.4,83.2c47.5,0,81.3-35.2,81.3-83.2
		c0-48.9-33.8-84.6-81.3-84.6C1454.9,332.9,1421.5,368.6,1421.5,417.5z"/>
	<path class="st2" d="M1719,532.7h-38.1V301h38.1v39.5c17.4-26.8,45.1-43.7,80.4-43.7c58.3,0,89.3,42.8,89.3,99.6v136.3h-38.5V403
		c0-45.1-19.7-69.1-60.2-69.1c-42.8,0-71,36.7-71,82.7L1719,532.7z"/>
	<path class="st2" d="M2125.1,492.2c-18.8,27.7-48.9,44.7-85.1,44.7c-67.7,0-116.1-50.3-116.1-118.9c0-70,48.4-121.3,116.1-121.3
		c36.2,0,66.3,17.4,85.1,45.6v-92.1l38.5-23.5v305.9h-38.5V492.2z M1963.4,417.5c0,47.9,33.4,83.2,80.4,83.2
		c47.5,0,81.3-35.2,81.3-83.2c0-48.9-33.8-84.6-81.3-84.6C1996.8,332.9,1963.4,368.6,1963.4,417.5z"/>
	<path class="st2" d="M2830.1,492.2c-18.8,27.7-48.9,44.7-85.1,44.7c-67.7,0-116.1-50.3-116.1-118.9c0-70,48.4-121.3,116.1-121.3
		c36.2,0,66.3,17.4,85.1,45.6v-92.1l38.5-23.5v305.9h-38.5V492.2z M2668.4,417.5c0,47.9,33.4,83.2,80.4,83.2
		c47.5,0,81.3-35.2,81.3-83.2c0-48.9-33.8-84.6-81.3-84.6C2701.8,332.9,2668.4,368.6,2668.4,417.5z"/>
	<path class="st2" d="M2406.1,493.2c-19.3,27.3-48.9,43.7-85.1,43.7c-67.7,0-116.1-50.3-116.1-118.9c0-70,48.4-121.3,116.1-121.3
		c36.2,0,65.8,16.9,85.1,44.7V301h38.5v231.7h-38.5V493.2z M2244.4,417.5c0,47.9,33.4,83.2,80.4,83.2c47.5,0,81.3-35.2,81.3-83.2
		c0-48.9-33.8-84.6-81.3-84.6C2277.8,332.9,2244.4,368.6,2244.4,417.5L2244.4,417.5z"/>
	<path class="st2" d="M2541.9,532.7h-38.1V301h38.1v49.3c18.3-34.3,47.9-53.6,84.6-53.6v43.7c-46.1-6.6-84.6,24.4-84.6,81.8V532.7z"
		/>
	<path class="st2" d="M1325.2,350.3c13.6,8.9,31.8,5.1,40.7-8.5c8.9-13.6,5.1-31.8-8.5-40.7c-0.1-0.1-0.2-0.1-0.3-0.2l-0.8-0.5
		c-9.7-6.1-22-6.1-31.7,0.1l-37.8,24.4L1325.2,350.3z"/>
</g>
<g id="guide">
	<path class="st3" d="M105.8,1381.8c25.2,0,43.2-8,60.7-19.3l131.1-85.4l-131.1-85.4c-17.7-11.4-36.2-19.3-60.7-19.3
		C47.9,1171.8,0.6,1218.2,0,1276.1s45.9,105.2,103.7,105.8C104.4,1381.8,105.1,1381.8,105.8,1381.8"/>
	<path class="st3" d="M105.8,1591.3c25.2,0,43.2-8,60.7-19.4l131.1-85.4l-131.1-85.4c-17.7-11.4-36.2-19.3-60.7-19.3
		C47.9,1381.3,0.6,1427.7,0,1485.6s45.9,105.2,103.7,105.8C104.4,1591.4,105.1,1591.4,105.8,1591.3"/>
	<path class="st3" d="M-207.7,104c0,25.2,8,43.2,19.4,60.7l85.4,131.1l85.4-131.1C-6.2,147,1.8,128.5,1.8,104
		C1.2,46.2-46.1-0.3-104,0.3C-161.1,0.9-207.2,47-207.7,104"/>
	<path class="st3" d="M-417.2,104c0,25.2,8,43.2,19.4,60.7l85.4,131.1l85.4-131.1c11.4-17.7,19.4-36.2,19.4-60.7
		C-208.3,46.2-255.6-0.3-313.5,0.3C-370.5,0.9-416.7,47-417.2,104"/>
	<path class="st3" d="M3201.1,1068.2c0-25.2-7.9-43.2-19.4-60.7l-85.4-131.1l-85.4,131.1c-11.4,17.7-19.4,36.2-19.4,60.7
		c-0.6,57.9,45.9,105.2,103.7,105.8s105.2-45.9,105.8-103.7C3201.1,1069.5,3201.1,1068.9,3201.1,1068.2"/>
	<path class="st3" d="M3410.6,1068.2c0-25.2-8-43.2-19.4-60.7l-85.4-131.1l-85.4,131.1c-11.4,17.7-19.4,36.2-19.4,60.7
		c-0.6,57.9,45.9,105.2,103.7,105.8s105.2-45.9,105.8-103.7C3410.6,1069.5,3410.6,1068.9,3410.6,1068.2"/>
	<path class="st3" d="M2884.2-209.5c-25.2,0-43.2,8-60.7,19.4l-131.1,85.4l131.1,85.4C2841.2-8,2859.8,0,2884.2,0
		c57.9,0.6,105.2-45.9,105.8-103.7s-45.9-105.2-103.7-105.8C2885.6-209.5,2884.9-209.5,2884.2-209.5"/>
	<path class="st3" d="M2884.2-419c-25.2,0-43.2,8-60.7,19.3l-131.1,85.4l131.1,85.4c17.7,11.4,36.2,19.4,60.7,19.4
		c57.9,0.6,105.2-45.9,105.8-103.7s-45.9-105.2-103.7-105.8C2885.6-419,2884.9-419,2884.2-419"/>
</g>
</svg>
